# xmcd CD database file
#
# Track frame offsets:
#	150
#	15252
#	30504
#	45056
#	66578
#	80640
#	93221
#	107343
#	119525
#	138447
#	159289
#	171521
#
# Disc length: 2593 seconds
#
# Revision: 0
# Processed by: cddbd v1.5.2PL0 Copyright (c) Steve Scherf et al.
# Submitted via: CDex 1.51
#
DISCID=8b0a1f0c
DTITLE=Eric Church - Carolina
DYEAR=2009
DGENRE=Country
TTITLE0=Ain't Killed Me Yet
TTITLE1=Lotta Boot Left To Fill
TTITLE2=Young And Wild
TTITLE3=Where She Told Me To Go
TTITLE4=Longer Gone
TTITLE5=Love Your Love the Most
TTITLE6=Smoke a Little Smoke
TTITLE7=Without You Here
TTITLE8=You Make It Look So Easy
TTITLE9=Carolina
TTITLE10=Hell On The Heart
TTITLE11=Those I've Loved
EXTD=YEAR: 2009
EXTT0=
EXTT1=
EXTT2=
EXTT3=
EXTT4=
EXTT5=
EXTT6=
EXTT7=
EXTT8=
EXTT9=
EXTT10=
EXTT11=
PLAYORDER=
